<svg width="56" height="46" viewBox="0 0 56 46" fill="none" xmlns="http://www.w3.org/2000/svg">
<path d="M56 15.949C55.7214 7.2129 48.199 0.275391 38.7264 0.275391C35.6617 0.275391 30.9254 2.33095 28.9751 5.67123C28.6965 6.44207 27.5821 6.44207 27.3035 5.67123C25.0746 2.5879 20.6169 0.532336 17.2736 0.532336C8.0796 0.532336 0.278607 7.46985 0 15.949V16.4629C0 20.831 1.95025 24.9421 5.29353 28.0254C5.57214 28.2824 18.9453 39.331 25.0746 44.213C26.7463 45.4977 29.2537 45.4977 30.9254 44.213C37.0547 39.331 50.1493 28.5393 50.7065 28.2824C50.7065 28.2824 50.7065 28.2824 50.7065 28.0254C54.0498 25.199 56 21.0879 56 16.4629V15.949Z" fill="url(#paint0_linear_39017_4340)"/>
<defs>
<linearGradient id="paint0_linear_39017_4340" x1="28" y1="0.275391" x2="28" y2="45.1765" gradientUnits="userSpaceOnUse">
<stop stop-color="#FF37BB"/>
<stop offset="1" stop-color="#FF68CC"/>
</linearGradient>
</defs>
</svg>
