<svg width="22" height="22" viewBox="0 0 22 22" fill="none" xmlns="http://www.w3.org/2000/svg">
<path d="M8.57768 2.69294C9.56508 0.318953 12.9281 0.318952 13.9155 2.69294L14.6568 4.4753C15.0731 5.47611 16.0143 6.15993 17.0947 6.24655L19.0189 6.40081C21.5819 6.60628 22.6211 9.8047 20.6684 11.4774L19.2024 12.7332C18.3792 13.4383 18.0197 14.5448 18.2712 15.5991L18.7191 17.4768C19.3156 19.9778 16.5949 21.9545 14.4007 20.6143L12.7533 19.6081C11.8283 19.0431 10.6649 19.0431 9.73987 19.6081L8.09248 20.6143C5.89826 21.9545 3.17753 19.9778 3.7741 17.4768L4.222 15.5991C4.4735 14.5448 4.114 13.4383 3.2908 12.7332L1.82476 11.4774C-0.127915 9.8047 0.911312 6.60628 3.47423 6.40081L5.39844 6.24655C6.4789 6.15993 7.42009 5.47611 7.83635 4.4753L8.57768 2.69294Z" fill="#52A2FF"/>
</svg>
