<svg width="22" height="22" viewBox="0 0 22 22" fill="none" xmlns="http://www.w3.org/2000/svg">
<path d="M8.61273 2.69294C9.60013 0.318953 12.9631 0.318952 13.9505 2.69294L14.6919 4.4753C15.1081 5.47611 16.0493 6.15993 17.1298 6.24655L19.054 6.40081C21.6169 6.60628 22.6561 9.8047 20.7035 11.4774L19.2374 12.7332C18.4142 13.4383 18.0547 14.5448 18.3062 15.5991L18.7541 17.4768C19.3507 19.9778 16.63 21.9545 14.4357 20.6143L12.7883 19.6081C11.8633 19.0431 10.6999 19.0431 9.77492 19.6081L8.12753 20.6143C5.93331 21.9545 3.21258 19.9778 3.80915 17.4768L4.25705 15.5991C4.50855 14.5448 4.14905 13.4383 3.32585 12.7332L1.85981 11.4774C-0.0928659 9.8047 0.946362 6.60628 3.50928 6.40081L5.43349 6.24655C6.51395 6.15993 7.45514 5.47611 7.8714 4.4753L8.61273 2.69294Z" fill="#52A2FF"/>
</svg>
