<svg width="22" height="19" viewBox="0 0 22 19" fill="none" xmlns="http://www.w3.org/2000/svg">
<path fill-rule="evenodd" clip-rule="evenodd" d="M19.4402 5.26721C20.7399 6.75974 21.4806 8.75429 21.6658 11.1127C22.0262 15.7016 17.7085 17.7616 11.6361 18.2449C5.56371 18.7282 1.07877 17.3687 0.718379 12.7798C0.548921 10.622 0.938792 8.59676 1.93147 6.9122C1.73132 6.68317 1.5683 6.41929 1.45705 6.12309C0.891099 4.61622 1.6571 2.40498 2.97436 1.90362C4.38699 1.36597 5.79127 2.07313 6.58135 3.15444C7.68658 2.7416 8.9536 2.46503 10.3879 2.35089C11.7828 2.23987 13.0482 2.28968 14.1844 2.48511C14.7344 1.16916 16.0874 0.0869145 17.6733 0.416669C19.0525 0.703432 20.1541 2.76603 19.8304 4.34371C19.7611 4.68182 19.6249 4.99174 19.4402 5.26721Z" fill="#2D68AE"/>
</svg>
