<svg width="30" height="26" viewBox="0 0 30 26" fill="none" xmlns="http://www.w3.org/2000/svg">
<path d="M28.813 17.91C30.7295 13.6396 28.7373 8.52699 24.1782 6.29351C22.7032 5.57092 19.9411 5.44351 18.2184 6.59135C17.9034 6.89666 17.367 6.6339 17.4139 6.19721C17.0649 4.18768 15.4019 2.1473 13.7927 1.35901C9.36769 -0.808773 3.98471 0.690898 1.86037 4.70621L1.73975 4.95355C0.714477 7.05588 0.688161 9.49438 1.57355 11.7667C1.64733 11.956 5.49044 20.4268 7.29458 24.2217C7.79758 25.2342 9.00442 25.8254 10.1105 25.6012C14.2065 24.6967 23.0419 22.5902 23.3704 22.5979C23.3704 22.5979 23.3704 22.5979 23.4307 22.4742C25.7032 21.9022 27.6068 20.3833 28.6924 18.1573L28.813 17.91Z" fill="url(#paint0_linear_39017_4323)"/>
<defs>
<linearGradient id="paint0_linear_39017_4323" x1="19.0156" y1="3.76443" x2="8.43797" y2="25.3564" gradientUnits="userSpaceOnUse">
<stop stop-color="#FF37BB"/>
<stop offset="1" stop-color="#FF68CC"/>
</linearGradient>
</defs>
</svg>
