<svg width="30" height="27" viewBox="0 0 30 27" fill="none" xmlns="http://www.w3.org/2000/svg">
<path d="M28.9838 6.00045C27.1346 1.70038 22.0266 -0.27857 17.3046 1.58427C15.7769 2.18696 13.8184 4.14305 13.5001 6.19167C13.5121 6.63071 12.9566 6.84987 12.6668 6.52041C10.9521 5.42171 8.32759 5.27367 6.66101 5.93115C2.07789 7.7392 -0.452657 12.7316 1.06843 17.0131L1.16904 17.2693C2.02417 19.4467 3.80119 21.1126 6.0714 21.9921C6.26058 22.0654 15.0899 24.9431 19.1011 26.1713C20.1859 26.483 21.4358 25.9899 22.0176 25.0207C24.1173 21.3818 28.5321 13.4271 28.7595 13.1895C28.7595 13.1895 28.7595 13.1895 28.7092 13.0614C29.8225 10.995 29.9898 8.56213 29.0844 6.25662L28.9838 6.00045Z" fill="url(#paint0_linear_39017_4341)"/>
<defs>
<linearGradient id="paint0_linear_39017_4341" x1="11.9577" y1="3.69367" x2="20.7824" y2="26.0628" gradientUnits="userSpaceOnUse">
<stop stop-color="#FF37BB"/>
<stop offset="1" stop-color="#FF68CC"/>
</linearGradient>
</defs>
</svg>
