<svg width="17" height="25" viewBox="0 0 17 25" fill="none" xmlns="http://www.w3.org/2000/svg">
<path d="M8.03003 0.504633C8.11027 0.0348444 8.78504 0.0348468 8.86528 0.504635L9.21854 2.57288C9.90469 6.59008 12.4624 10.0406 16.1064 11.8653C16.3421 11.9833 16.3421 12.3197 16.1064 12.4377C12.4624 14.2624 9.90469 17.713 9.21854 21.7302L8.86528 23.7984C8.78504 24.2682 8.11027 24.2682 8.03003 23.7984L7.67676 21.7302C6.99061 17.713 4.43293 14.2624 0.788857 12.4377C0.553168 12.3197 0.553167 11.9833 0.788857 11.8653C4.43293 10.0406 6.99061 6.59008 7.67676 2.57288L8.03003 0.504633Z" fill="white"/>
</svg>
