<svg width="22" height="22" viewBox="0 0 22 22" fill="none" xmlns="http://www.w3.org/2000/svg">
<path d="M8.10715 2.47615C9.10819 0.140138 12.4199 0.140136 13.4209 2.47614L14.2873 4.49784C14.7108 5.48617 15.6479 6.15773 16.7199 6.24114L18.8104 6.40381C21.3975 6.60512 22.4295 9.84934 20.4341 11.5083L18.9701 12.7255C18.1194 13.4328 17.747 14.5637 18.011 15.6381L18.4805 17.5481C19.092 20.0363 16.4035 22.031 14.1994 20.7244L12.2381 19.5617C11.3292 19.0229 10.1988 19.0229 9.28998 19.5617L7.32867 20.7244C5.12458 22.031 2.43608 20.0363 3.0476 17.5481L3.51701 15.6381C3.78106 14.5637 3.40868 13.4328 2.55795 12.7255L1.09393 11.5083C-0.901456 9.84934 0.130516 6.60512 2.71766 6.40381L4.80816 6.24114C5.88017 6.15773 6.81727 5.48617 7.2408 4.49785L8.10715 2.47615Z" fill="#52A2FF"/>
</svg>
