<svg width="11" height="17" viewBox="0 0 11 17" fill="none" xmlns="http://www.w3.org/2000/svg">
<path d="M5.30064 1.19583C5.35092 0.89718 5.78006 0.897181 5.83033 1.19583L6.05426 2.52602C6.47892 5.04867 8.07487 7.2204 10.3556 8.37911C10.5027 8.45385 10.5027 8.66399 10.3556 8.73872C8.07487 9.89743 6.47892 12.0692 6.05426 14.5918L5.83033 15.922C5.78006 16.2207 5.35092 16.2207 5.30064 15.922L5.07672 14.5918C4.65206 12.0692 3.0561 9.89743 0.775423 8.73872C0.628316 8.66399 0.628315 8.45385 0.775423 8.37911C3.0561 7.2204 4.65206 5.04867 5.07672 2.52602L5.30064 1.19583Z" fill="white"/>
</svg>
