<svg width="22" height="22" viewBox="0 0 22 22" fill="none" xmlns="http://www.w3.org/2000/svg">
<path d="M8.66182 2.69294C9.64921 0.318953 13.0122 0.318952 13.9996 2.69294L14.741 4.4753C15.1572 5.47611 16.0984 6.15993 17.1789 6.24655L19.1031 6.40081C21.666 6.60628 22.7052 9.8047 20.7525 11.4774L19.2865 12.7332C18.4633 13.4383 18.1038 14.5448 18.3553 15.5991L18.8032 17.4768C19.3998 19.9778 16.679 21.9545 14.4848 20.6143L12.8374 19.6081C11.9124 19.0431 10.749 19.0431 9.82401 19.6081L8.17662 20.6143C5.9824 21.9545 3.26166 19.9778 3.85824 17.4768L4.30614 15.5991C4.55764 14.5448 4.19814 13.4383 3.37494 12.7332L1.9089 11.4774C-0.0437784 9.8047 0.995449 6.60628 3.55837 6.40081L5.48258 6.24655C6.56304 6.15993 7.50423 5.47611 7.92049 4.4753L8.66182 2.69294Z" fill="#52A2FF"/>
</svg>
