<svg width="148" height="148" viewBox="0 0 148 148" fill="none" xmlns="http://www.w3.org/2000/svg">
<path fill-rule="evenodd" clip-rule="evenodd" d="M101.245 0.909922C99.9211 9.26688 89.2499 15.7802 76.2819 15.7802C62.8469 15.7802 51.877 8.78925 51.2125 0L5.39833 2.74336C2.36609 2.92493 0 5.43695 0 8.47462V40.6958C0 44.2192 3.14424 46.9114 6.62563 46.3688L17.791 44.6288C21.4955 44.0515 24.7505 47.1219 24.39 50.8538L15.9103 138.645C15.5915 141.946 18.1274 144.83 21.442 144.935L115.67 147.944C118.911 148.047 121.595 145.448 121.595 142.205V54.473C121.595 50.8276 124.948 48.1052 128.516 48.8539L141.079 51.4907C144.647 52.2395 148 49.517 148 45.8716V14.6539C148 11.9015 146.047 9.53635 143.344 9.01594L101.245 0.909922Z" fill="#4DC380"/>
</svg>
