<svg width="22" height="22" viewBox="0 0 22 22" fill="none" xmlns="http://www.w3.org/2000/svg">
<path d="M8.59651 2.69319C9.58391 0.319197 12.9469 0.319196 13.9343 2.69318L14.6756 4.47554C15.0919 5.47635 16.0331 6.16017 17.1136 6.24679L19.0378 6.40105C21.6007 6.60652 22.6399 9.80494 20.6872 11.4776L19.2212 12.7334C18.398 13.4386 18.0385 14.545 18.29 15.5994L18.7379 17.4771C19.3345 19.978 16.6137 21.9548 14.4195 20.6146L12.7721 19.6083C11.8471 19.0433 10.6837 19.0433 9.7587 19.6083L8.11131 20.6146C5.91709 21.9548 3.19636 19.978 3.79293 17.4771L4.24083 15.5994C4.49233 14.545 4.13283 13.4386 3.30963 12.7334L1.84359 11.4776C-0.109086 9.80494 0.930141 6.60652 3.49306 6.40106L5.41727 6.24679C6.49773 6.16017 7.43892 5.47636 7.85518 4.47554L8.59651 2.69319Z" fill="#52A2FF"/>
</svg>
